<svg aria-hidden="true" style="position: absolute; width: 0; height: 0; overflow: hidden;" version="1.1" xmlns="http://www.w3.org/2000/svg" xmlns:xlink="http://www.w3.org/1999/xlink">
<defs>
<symbol id="icon-sigla_descktop" viewBox="0 0 32 32">
<path fill="none" stroke="#fff" style="stroke: var(--color1, #fff)" stroke-linejoin="round" stroke-linecap="round" stroke-miterlimit="4" stroke-width="2.1695" d="M26.427 2.667h-20.853c-1.605 0-2.907 1.301-2.907 2.907v20.853c0 1.605 1.302 2.907 2.907 2.907h20.853c1.605 0 2.907-1.302 2.907-2.907v-20.853c0-1.605-1.302-2.907-2.907-2.907zM9.333 2.667v26.666M22.667 2.667v26.666M2.667 16h26.666M2.667 9.334h6.666M2.667 22.666h6.666M22.667 22.666h6.666M22.667 9.334h6.666"></path>
</symbol>
<symbol id="icon-sigla_mobil" viewBox="0 0 32 32">
<path fill="none" stroke="#fff" style="stroke: var(--color1, #fff)" stroke-linejoin="round" stroke-linecap="round" stroke-miterlimit="4" stroke-width="2" d="M26.427 2.667h-20.854c-1.605 0-2.906 1.301-2.907 2.906v20.854c0.001 1.605 1.302 2.906 2.907 2.906h20.854c1.605-0.001 2.905-1.301 2.906-2.906v-20.854c-0.001-1.605-1.301-2.905-2.906-2.906h-0zM9.334 2.667v26.666M22.666 2.667v26.666M2.667 16h26.666M2.667 9.333h6.666M2.667 22.667h6.666M22.666 22.667h6.667M22.666 9.333h6.667"></path>
</symbol>
<symbol id="icon-sigla_tableta" viewBox="0 0 31 32">
<path fill="none" stroke="#fff" style="stroke: var(--color1, #fff)" stroke-linejoin="round" stroke-linecap="round" stroke-miterlimit="4" stroke-width="1.561" d="M25.783 2.992h-20.345c-1.566 0-2.836 1.269-2.836 2.836v0 20.345c0 1.566 1.27 2.835 2.836 2.835v0h20.345c1.566 0 2.835-1.27 2.835-2.835v-20.345c0-1.566-1.27-2.836-2.835-2.836v0zM9.105 2.992v26.016M22.114 2.992v26.016M2.601 16h26.016M2.602 9.496h6.504M2.602 22.504h6.504M22.114 22.504h6.504M22.114 9.496h6.504"></path>
</symbol>
</defs>
</svg>
